<mxfile host="app.diagrams.net" modified="2023-04-10T13:49:55.156Z" agent="Mozilla/5.0 (Macintosh; Intel Mac OS X 10_15_7) AppleWebKit/537.36 (KHTML, like Gecko) Chrome/111.0.0.0 Safari/537.36" version="21.1.5" etag="wIz5tnAk59By_H42Wo2s" type="github">
  <diagram name="Page-1" id="EdRK70JaGiokfq8uX9SL">
    <mxGraphModel>
      <root>
        <mxCell id="0" />
        <mxCell id="1" parent="0" />
      </root>
    </mxGraphModel>
  </diagram>
</mxfile>
